<svg width="50" height="50" viewBox="0 0 50 50" fill="none" xmlns="http://www.w3.org/2000/svg">
<g clip-path="url(#clip0_23_196)">
<path d="M50 25C50 11.1929 38.8071 0 25 0C11.1929 0 0 11.1929 0 25C0 38.8071 11.1929 50 25 50C38.8071 50 50 38.8071 50 25Z" fill="#FED300"/>
<path fill-rule="evenodd" clip-rule="evenodd" d="M15.4456 32.415V27.0291L25.2465 13.01H32.4021V26.049H34.8211V32.415H32.4021V36.25H25.3576V32.415H15.4456ZM26.3576 31.415V35.25H31.4021V31.415H33.8211V27.049H31.4021V14.01H25.7676L16.4456 27.344V31.415H26.3576ZM21.7556 27.049H26.7116V19.556L21.7556 27.049ZM23.6159 26.049H25.7116V22.8806L23.6159 26.049Z" fill="#004D96"/>
</g>
<defs>
<clipPath id="clip0_23_196">
<rect width="50" height="50" fill="white"/>
</clipPath>
</defs>
</svg>
