<svg width="50" height="50" viewBox="0 0 50 50" fill="none" xmlns="http://www.w3.org/2000/svg">
<g clip-path="url(#clip0_23_188)">
<path d="M50 25C50 11.1929 38.8071 0 25 0C11.1929 0 0 11.1929 0 25C0 38.8071 11.1929 50 25 50C38.8071 50 50 38.8071 50 25Z" fill="#FED300"/>
<path fill-rule="evenodd" clip-rule="evenodd" d="M16.4664 20.792L16.5052 19.7547C16.5917 17.4404 17.3612 15.5339 18.9094 14.1734C20.4372 12.8308 22.4561 12.2135 24.85 12.2135C26.4362 12.2135 27.8525 12.488 29.0631 13.0811C30.2711 13.6634 31.2243 14.4826 31.8688 15.5535C32.521 16.6045 32.8415 17.7803 32.8415 19.0545C32.8415 20.5225 32.4719 21.8179 31.6543 22.8583L31.6507 22.863L31.647 22.8675C31.3326 23.2582 30.9907 23.6033 30.6212 23.8993C31.1683 24.2738 31.6472 24.7298 32.0515 25.269C32.8603 26.3474 33.225 27.6849 33.225 29.2025C33.225 30.5831 32.9003 31.8463 32.2272 32.9618C31.5664 34.0698 30.5967 34.9212 29.3652 35.5265C28.1355 36.1406 26.7077 36.427 25.1155 36.427C22.5923 36.427 20.4587 35.8047 18.8177 34.46L18.8124 34.4557C17.1367 33.0632 16.3249 31.0067 16.2396 28.4691L16.2048 27.4355H23.1136L23.1358 28.4128C23.1512 29.0905 23.3359 29.5231 23.6015 29.8148C23.83 30.0487 24.2202 30.238 24.9385 30.238C25.5136 30.238 25.8105 30.0815 25.9852 29.8985L25.9859 29.8978C26.2117 29.6616 26.3575 29.3341 26.3575 28.819C26.3575 28.102 26.1405 27.7865 25.8822 27.6114L25.8667 27.601L25.8517 27.5899C25.5236 27.3493 24.8359 27.1345 23.5815 27.1345H21.6375V21.034H23.5815C24.4823 21.034 25.1032 20.8826 25.5146 20.6585C25.7514 20.5238 25.9445 20.29 25.9445 19.674C25.9445 19.1553 25.8056 18.8873 25.6474 18.7291C25.4841 18.5658 25.2219 18.432 24.732 18.432C24.2047 18.432 23.9644 18.5798 23.8292 18.7382C23.6181 19.0128 23.4715 19.3777 23.4272 19.8799L23.3467 20.792H16.4664ZM23.0505 18.1105C23.4242 17.6582 23.9847 17.432 24.732 17.432C25.4204 17.432 25.9612 17.6287 26.3545 18.022C26.7479 18.4154 26.9445 18.966 26.9445 19.674C26.9445 20.559 26.6299 21.1785 26.0005 21.5325C25.3909 21.8668 24.5845 22.034 23.5815 22.034H22.6375V26.1345H23.5815C24.8992 26.1345 25.853 26.3509 26.443 26.7835C27.0527 27.1965 27.3575 27.875 27.3575 28.819C27.3575 29.5466 27.1412 30.1367 26.7085 30.589C26.2955 31.0217 25.7055 31.238 24.9385 31.238C24.0339 31.238 23.3455 30.9921 22.8735 30.5005C22.4015 29.9891 22.1557 29.3009 22.136 28.4355H17.239C17.2507 28.7818 17.2767 29.1151 17.3172 29.4355C17.5503 31.2809 18.2618 32.6979 19.4515 33.6865C20.8675 34.8469 22.7555 35.427 25.1155 35.427C26.5905 35.427 27.859 35.1615 28.921 34.6305C30.0027 34.0995 30.8189 33.3718 31.3695 32.4475C31.9399 31.5035 32.225 30.4219 32.225 29.2025C32.225 27.8455 31.9005 26.7344 31.2515 25.869C30.8332 25.3113 30.3169 24.8557 29.7026 24.5022C29.3766 24.3147 29.0231 24.1559 28.642 24.0259C28.6269 24.0207 28.6117 24.0156 28.5965 24.0105V23.8925C28.6114 23.8875 28.6262 23.8823 28.641 23.8771C29.0023 23.7497 29.3446 23.5773 29.6679 23.36C30.1023 23.068 30.5023 22.6949 30.868 22.2405C31.517 21.4145 31.8415 20.3525 31.8415 19.0545C31.8415 17.9532 31.5662 16.96 31.0155 16.075C30.4845 15.19 29.688 14.4919 28.626 13.9805C27.5837 13.4692 26.325 13.2135 24.85 13.2135C22.6277 13.2135 20.8675 13.7839 19.5695 14.9245C18.4852 15.8774 17.8263 17.1666 17.5929 18.792C17.5469 19.1123 17.5175 19.4456 17.5045 19.792H22.431C22.49 19.1234 22.6965 18.5629 23.0505 18.1105Z" fill="#004D96"/>
</g>
<defs>
<clipPath id="clip0_23_188">
<rect width="50" height="50" fill="white"/>
</clipPath>
</defs>
</svg>
