<svg width="50" height="50" viewBox="0 0 50 50" fill="none" xmlns="http://www.w3.org/2000/svg">
<g clip-path="url(#clip0_23_173)">
<path d="M50 25C50 11.1929 38.8071 0 25 0C11.1929 0 0 11.1929 0 25C0 38.8071 11.1929 50 25 50C38.8071 50 50 38.8071 50 25Z" fill="#FED300"/>
<path fill-rule="evenodd" clip-rule="evenodd" d="M16.6504 30.7257L17.0285 30.4254C17.3626 30.1601 17.6035 29.9679 17.7528 29.8475C17.8291 29.786 17.8755 29.748 17.8978 29.7293C17.8996 29.7277 17.9025 29.7253 17.9025 29.7253C17.8949 29.732 17.8797 29.7458 17.8629 29.7625C17.8556 29.7698 17.8419 29.7837 17.8255 29.8021C17.8148 29.8141 17.7755 29.8581 17.7343 29.9212C17.7156 29.95 17.6699 30.0223 17.6327 30.1243C17.6103 30.1856 17.4999 30.4897 17.6474 30.8478C17.6872 30.9444 17.7368 31.0263 17.7923 31.0958C17.747 31.1318 17.6997 31.1694 17.6504 31.2085V34.955H32.4594V30.8545H24.4944C24.9254 30.5227 25.3417 30.1893 25.7431 29.8545C27.4114 28.4631 28.8242 27.0461 29.9814 25.6035C31.4171 23.7942 32.1349 21.8374 32.1349 19.733C32.1349 17.8057 31.5351 16.2422 30.3354 15.0425C29.1554 13.8429 27.3953 13.243 25.0549 13.243C23.6979 13.243 22.4589 13.5085 21.3379 14.0395C20.2366 14.5705 19.3418 15.3965 18.6534 16.5175C18.1228 17.4071 17.7903 18.4701 17.656 19.7065C17.6211 20.0281 17.5995 20.3615 17.5914 20.7065H22.4589C22.4589 19.6839 22.6654 18.8972 23.0784 18.3465C23.5111 17.7762 24.1011 17.491 24.8484 17.491C25.5958 17.491 26.1563 17.7172 26.5299 18.1695C26.9036 18.6219 27.0904 19.2512 27.0904 20.0575C27.0904 21.1195 26.7069 22.211 25.9399 23.332C25.1729 24.453 24.2289 25.5249 23.1079 26.5475C22.1591 27.4286 20.9037 28.5214 19.3417 29.8258C19.0907 30.0354 18.8318 30.2505 18.5649 30.471C18.5739 30.465 18.5745 30.4657 18.5665 30.4729C18.5596 30.4792 18.5464 30.4905 18.5273 30.5064L17.9278 29.7002C19.8487 28.1126 21.3464 26.8186 22.4275 25.8147L22.4307 25.8117L22.434 25.8088C23.5045 24.8321 24.3959 23.8177 25.1146 22.7673C25.7995 21.7664 26.0904 20.8684 26.0904 20.0575C26.0904 19.3971 25.9375 19.0226 25.759 18.8064C25.6252 18.6445 25.3859 18.491 24.8484 18.491C24.3989 18.491 24.1106 18.6416 23.8768 18.9487C23.6438 19.2607 23.4589 19.8021 23.4589 20.7065V21.7065H16.5676L16.5917 20.683C16.634 18.8864 17.0162 17.3103 17.7946 16.0052L17.7979 15.9997L17.8012 15.9943C18.5819 14.7229 19.6165 13.7593 20.9036 13.1388L20.9098 13.1358C22.1768 12.5356 23.564 12.243 25.0549 12.243C27.5548 12.243 29.614 12.8849 31.0455 14.3384C32.4567 15.7512 33.1349 17.5812 33.1349 19.733C33.1349 22.0854 32.3262 24.2573 30.7648 26.2251L30.7615 26.2293C29.7716 27.4632 28.6086 28.6713 27.2763 29.8545H33.4594V35.955H16.6504V30.7257Z" fill="#004D96"/>
</g>
<defs>
<clipPath id="clip0_23_173">
<rect width="50" height="50" fill="white"/>
</clipPath>
</defs>
</svg>
